<?xml version="1.0" standalone="no"?>
<!DOCTYPE svg PUBLIC "-//W3C//DTD SVG 20010904//EN"
 "http://www.w3.org/TR/2001/REC-SVG-20010904/DTD/svg10.dtd">
<svg version="1.0" xmlns="http://www.w3.org/2000/svg"
 width="1280.000000pt" height="734.000000pt" viewBox="0 0 1280.000000 734.000000"
 preserveAspectRatio="xMidYMid meet">
<metadata>
Created by potrace 1.15, written by Peter Selinger 2001-2017
</metadata>
<g transform="translate(0.000000,734.000000) scale(0.100000,-0.100000)"
fill="#000000" stroke="none">
<path d="M4175 7333 c-523 -65 -1540 -596 -2703 -1411 l-192 -135 0 -63 0 -64
-68 0 -68 0 -69 -141 c-39 -78 -74 -147 -80 -153 -5 -6 -34 -58 -62 -116 l-53
-105 3 83 c2 69 5 83 20 88 10 3 17 7 15 9 -2 2 -22 -2 -43 -10 -22 -8 -59
-14 -83 -15 -40 0 -44 -3 -72 -47 -80 -126 -170 -477 -170 -663 l0 -99 -186
-363 -187 -363 2 -75 c1 -41 11 -282 21 -535 11 -253 20 -463 20 -467 0 -5
-42 -8 -94 -8 l-94 0 -13 -82 c-22 -133 -17 -393 9 -501 12 -48 29 -101 37
-117 15 -30 16 -30 100 -30 l85 0 0 -32 c0 -18 3 -57 6 -85 l7 -53 58 0 59 0
0 -110 0 -110 -27 0 -26 0 6 -167 c4 -93 11 -254 17 -359 l10 -191 63 -179 64
-179 586 -3 586 -2 6 57 c12 110 36 268 54 353 l17 85 92 3 91 3 0 -75 c0 -41
4 -83 10 -94 6 -11 13 -42 16 -68 4 -26 17 -71 31 -99 13 -29 24 -59 24 -67 0
-8 18 -42 40 -74 22 -33 40 -64 40 -70 0 -33 262 -284 297 -284 14 0 59 -26
81 -47 7 -7 38 -20 67 -29 30 -8 67 -22 83 -30 16 -8 55 -16 86 -19 31 -3 66
-9 79 -14 24 -9 238 -8 253 2 5 3 36 8 68 12 33 3 67 10 77 16 10 5 51 20 90
34 40 13 75 28 78 34 4 5 30 21 60 36 29 15 61 35 71 45 10 10 43 36 74 59 31
23 56 46 56 52 0 5 22 33 50 61 27 28 53 60 56 72 4 11 22 42 40 69 18 26 36
58 39 70 3 12 17 47 31 78 13 31 27 79 30 105 3 27 10 53 15 58 5 6 9 45 9 88
l0 78 34 0 34 0 8 -68 c4 -37 4 -149 1 -249 l-6 -183 335 0 334 0 2 243 3 242
48 1 47 1 0 -223 0 -224 1665 0 1665 0 2 223 3 222 130 0 130 0 2 -63 c0 -34
4 -70 8 -80 4 -9 10 -40 15 -69 5 -28 20 -77 34 -108 14 -30 26 -60 26 -66 0
-15 30 -71 48 -88 8 -8 20 -29 27 -46 30 -71 218 -254 304 -296 22 -10 56 -30
76 -43 20 -14 50 -28 68 -31 18 -4 51 -16 74 -26 24 -11 67 -22 98 -24 30 -3
65 -9 78 -14 24 -9 238 -8 253 1 5 4 33 9 62 12 29 3 73 15 97 26 24 11 50 20
58 20 20 0 64 20 112 51 22 14 50 29 62 33 13 4 35 19 50 34 16 15 52 45 81
67 28 21 52 43 52 47 0 5 22 32 50 60 27 28 52 60 56 72 4 12 20 39 35 61 27
37 38 61 82 180 21 55 38 137 45 220 l7 70 90 0 90 0 7 -70 c7 -83 24 -165 45
-220 44 -118 55 -143 81 -180 15 -22 33 -51 40 -65 14 -27 153 -174 217 -229
22 -19 54 -40 70 -47 17 -7 57 -28 89 -48 33 -20 68 -36 78 -36 11 0 39 -9 63
-20 24 -11 68 -23 97 -26 29 -3 57 -8 62 -12 15 -9 229 -10 253 -1 13 5 48 11
78 14 31 2 75 14 100 25 24 11 52 20 62 20 10 0 36 11 58 25 22 13 62 35 88
49 96 50 280 227 310 298 8 19 21 41 29 49 18 17 48 73 48 88 0 6 12 36 26 66
14 31 29 81 34 111 5 30 12 59 16 66 4 6 7 41 8 77 l1 66 198 3 197 2 -2 423
-3 422 -430 5 c-376 4 -434 7 -460 22 -16 9 -45 22 -63 29 -19 6 -40 23 -49
35 -19 29 -103 56 -256 84 -112 20 -102 20 -1402 60 -181 6 -463 15 -625 20
-162 5 -336 10 -387 10 l-92 0 -3 -77 c-3 -77 -3 -78 -30 -80 -15 -1 -75 -25
-133 -52 l-105 -51 -2075 2 -2075 3 82 55 c46 30 119 89 163 131 121 116 183
234 189 362 l3 52 51 3 52 3 0 419 0 419 58 3 c53 3 57 5 57 28 0 23 -4 25
-57 28 l-58 3 0 914 0 915 41 0 c49 0 79 15 79 39 0 23 -19 31 -76 31 l-44 0
0 365 0 365 -44 0 c-25 0 -47 3 -49 8 -2 4 -1 64 3 133 9 149 29 222 78 280
52 60 99 79 205 79 l87 0 0 106 0 106 -102 -4 c-89 -3 -112 -8 -168 -34 -113
-54 -204 -144 -295 -295 l-50 -83 -5 -145 -5 -146 -42 -3 -43 -3 -2 -367 -3
-367 -72 -3 -73 -3 0 221 0 220 -25 0 c-24 0 -25 3 -25 55 0 42 3 55 15 55 13
0 15 38 15 285 l0 285 -39 0 c-46 0 -46 0 -55 61 l-7 46 61 17 60 17 0 303 0
303 -134 126 -134 127 -49 -1 c-26 -1 -61 -4 -78 -6z m545 -3088 l0 -915 -91
0 -92 0 7 333 c3 182 8 517 11 742 3 226 8 488 11 583 l6 172 74 0 74 0 0
-915z m-2 -1397 l2 -418 71 0 72 0 -7 -51 c-11 -83 -53 -200 -91 -257 -34 -50
-113 -112 -142 -112 -10 0 -13 35 -13 160 l0 160 -90 0 -90 0 0 64 0 65 48 3
47 3 6 335 c3 184 7 363 8 397 l1 62 38 4 c20 2 60 4 87 3 l50 -1 3 -417z"/>
<path d="M940 5340 c-8 -5 -10 -10 -5 -10 6 0 17 5 25 10 8 5 11 10 5 10 -5 0
-17 -5 -25 -10z"/>
</g>
</svg>
